<?xml version="1.0" encoding="UTF-8" standalone="no"?>
<!-- Created with Inkscape (http://www.inkscape.org/) -->

<svg
   xmlns:osb="http://www.openswatchbook.org/uri/2009/osb"
   xmlns:dc="http://purl.org/dc/elements/1.1/"
   xmlns:cc="http://creativecommons.org/ns#"
   xmlns:rdf="http://www.w3.org/1999/02/22-rdf-syntax-ns#"
   xmlns:svg="http://www.w3.org/2000/svg"
   xmlns="http://www.w3.org/2000/svg"
   xmlns:xlink="http://www.w3.org/1999/xlink"
   xmlns:sodipodi="http://sodipodi.sourceforge.net/DTD/sodipodi-0.dtd"
   xmlns:inkscape="http://www.inkscape.org/namespaces/inkscape"
   id="svg2"
   version="1.1"
   inkscape:version="0.92.2 5c3e80d, 2017-08-06"
   xml:space="preserve"
   width="16"
   height="16"
   viewBox="0 0 16 16"
   sodipodi:docname="abapgit_staging.svg"
   inkscape:export-filename="/Users/i323324/abapGit_final.png"
   inkscape:export-xdpi="96"
   inkscape:export-ydpi="96"><metadata
     id="metadata8"><rdf:RDF><cc:Work
         rdf:about=""><dc:format>image/svg+xml</dc:format><dc:type
           rdf:resource="http://purl.org/dc/dcmitype/StillImage" /><dc:title></dc:title></cc:Work></rdf:RDF></metadata><defs
     id="defs6"><linearGradient
       id="linearGradient972"
       osb:paint="gradient"><stop
         style="stop-color:#dd1111;stop-opacity:1;"
         offset="0"
         id="stop968" /><stop
         style="stop-color:#3b413c;stop-opacity:0;"
         offset="1"
         id="stop970" /></linearGradient><linearGradient
       inkscape:collect="always"
       id="linearGradient4260"><stop
         style="stop-color:#f6867d;stop-opacity:1"
         offset="0"
         id="stop4262" /><stop
         id="stop4270"
         offset="0.28740454"
         style="stop-color:#f03c2e;stop-opacity:1" /><stop
         id="stop4268"
         offset="0.5420804"
         style="stop-color:#f03c2e;stop-opacity:1" /><stop
         style="stop-color:#f03c2e;stop-opacity:1"
         offset="0.66010773"
         id="stop4272" /><stop
         style="stop-color:#f03c2e;stop-opacity:1"
         offset="1"
         id="stop4264" /></linearGradient><linearGradient
       inkscape:collect="always"
       xlink:href="#linearGradient4260"
       id="linearGradient4266"
       x1="-4.5254817"
       y1="-13.576448"
       x2="4.525485"
       y2="-4.5254817"
       gradientUnits="userSpaceOnUse"
       gradientTransform="matrix(0.85972435,0,0,0.85972435,0.00189092,-0.65573996)" /><linearGradient
       id="linearGradient5103-3-7"><stop
         style="stop-color:#96b956;stop-opacity:1"
         offset="0"
         id="stop5105-5-4" /><stop
         id="stop7550-07-0"
         offset="0.26694915"
         style="stop-color:#c6d560;stop-opacity:1" /><stop
         id="stop7548-6-9"
         offset="0.51694918"
         style="stop-color:#cfdc63;stop-opacity:1" /><stop
         style="stop-color:#abca52;stop-opacity:1"
         offset="1"
         id="stop5107-7-48" /></linearGradient><linearGradient
       inkscape:collect="always"
       xlink:href="#linearGradient972"
       id="linearGradient978"
       gradientUnits="userSpaceOnUse"
       x1="10.05329"
       y1="9.3530121"
       x2="12.080224"
       y2="9.6630936"
       gradientTransform="matrix(1.0765542,1.0612677,1.0462873,-0.84702379,-11.858441,0.99752997)" /></defs><sodipodi:namedview
     pagecolor="#ffffff"
     bordercolor="#666666"
     borderopacity="1"
     objecttolerance="10"
     gridtolerance="10"
     guidetolerance="10"
     inkscape:pageopacity="0"
     inkscape:pageshadow="2"
     inkscape:window-width="1920"
     inkscape:window-height="1155"
     id="namedview4"
     showgrid="true"
     inkscape:snap-bbox="true"
     inkscape:bbox-nodes="true"
     inkscape:snap-global="false"
     inkscape:zoom="36.486266"
     inkscape:cx="0.56480195"
     inkscape:cy="7.7757829"
     inkscape:window-x="0"
     inkscape:window-y="1"
     inkscape:window-maximized="1"
     inkscape:current-layer="g10"><inkscape:grid
       type="xygrid"
       id="grid4142" /></sodipodi:namedview><g
     id="g10"
     inkscape:groupmode="layer"
     inkscape:label="ink_ext_XXXXXX"
     transform="matrix(1.25,0,0,-1.25,0,15.999997)"><g
       id="g12"
       transform="matrix(0.01305934,0,0,0.0130596,15.200064,0.38923063)"><path
         d="M 901.543,500.352 500.352,901.527 c -23.094,23.11 -60.567,23.11 -83.692,0 L 333.359,818.211 439.031,712.535 c 24.563,8.293 52.727,2.727 72.297,-16.847 19.688,-19.696 25.203,-48.102 16.699,-72.75 L 629.883,521.094 c 24.648,8.496 53.066,3.004 72.754,-16.711 27.5,-27.492 27.5,-72.059 0,-99.574 -27.52,-27.516 -72.078,-27.516 -99.61,0 -20.683,20.703 -25.8,51.097 -15.312,76.582 l -97.64918,94.97705 0,-249.95405 c 6.699,-3.32 15.67618,-7.742 21.26218,-13.312 27.5,-27.497 27.5,-72.059 0,-99.598 -27.5,-27.488 -72.09,-27.488 -99.57,0 -27.5,27.539 -27.5,72.101 0,99.598 6.797,6.789 8.65098,11.91847 17.04898,15.35647 l 0,252.25887 c -8.398,3.438 -10.23298,8.55966 -17.04898,15.39566 -20.828,20.821 -25.84,51.395 -15.156,76.977 L 292.422,777.285 17.3242,502.211 c -23.10545,-23.129 -23.10545,-60.602 0,-83.711 L 418.535,17.3242 c 23.098,-23.10545 60.559,-23.10545 83.692,0 L 901.543,416.641 c 23.113,23.113 23.113,60.605 0,83.711"
         style="fill:#f03c2e;fill-opacity:1;fill-rule:nonzero;stroke:none"
         id="path14"
         inkscape:connector-curvature="0"
         sodipodi:nodetypes="cccccccccccccccccccccccccccsc" /></g><path
       style="fill:none;fill-rule:evenodd;stroke:#000000;stroke-width:0.08;stroke-linecap:butt;stroke-linejoin:miter;stroke-miterlimit:4;stroke-dasharray:none;stroke-opacity:1"
       d="M -4.8282843,4.9658468 -9.9194531,10.057015"
       id="path4274"
       inkscape:connector-curvature="0"
       sodipodi:nodetypes="cc" /><path
       style="fill:none;fill-rule:evenodd;stroke:#000000;stroke-width:0.07999999;stroke-linecap:butt;stroke-linejoin:miter;stroke-miterlimit:4;stroke-dasharray:none;stroke-opacity:1"
       d="m -0.41093127,5.2437856 -7.19999843,0"
       id="path4274-6"
       inkscape:connector-curvature="0"
       sodipodi:nodetypes="cc" /><path
       style="fill:none;fill-rule:evenodd;stroke:#000000;stroke-width:0.07999999;stroke-linecap:butt;stroke-linejoin:miter;stroke-miterlimit:4;stroke-dasharray:none;stroke-opacity:1"
       d="m -7.5414253,1.3300241 0,7.1999984"
       id="path4274-1"
       inkscape:connector-curvature="0"
       sodipodi:nodetypes="cc" /><g
       id="g904"
       transform="matrix(0.95848136,0,0,0.89536233,0.65355671,2.0813953)"><g
         id="g893"><rect
           style="opacity:1;fill:url(#linearGradient4266);fill-opacity:1;stroke:#cf1d0f;stroke-width:0.93193531;stroke-linecap:round;stroke-linejoin:round;stroke-miterlimit:4;stroke-dasharray:none;stroke-dashoffset:0;stroke-opacity:1"
           id="rect4220"
           width="8.1331396"
           height="8.1331396"
           x="-4.0646305"
           y="-12.503644"
           transform="matrix(0.70510391,-0.70910399,-0.70510391,-0.70910399,0,0)"
           rx="0.65235472"
           ry="0.65235472" /></g><g
         transform="translate(0.01550407,0.43411381)"
         id="g876"><circle
           style="opacity:1;fill:#ffffff;fill-opacity:1;stroke:none;stroke-width:0.80000001;stroke-linecap:round;stroke-linejoin:round;stroke-miterlimit:4;stroke-dasharray:none;stroke-dashoffset:0;stroke-opacity:1"
           id="path4161"
           cx="5.5348783"
           cy="-7.68681"
           transform="scale(1,-1)"
           r="1" /><g
           id="g868"
           transform="translate(-0.24806504,-0.97675604)"><path
             inkscape:connector-curvature="0"
             id="path4144"
             d="m 6,8.7999976 v -5.6"
             style="fill:none;fill-rule:evenodd;stroke:#ffffff;stroke-width:0.80000001px;stroke-linecap:butt;stroke-linejoin:miter;stroke-opacity:1" /><path
             inkscape:connector-curvature="0"
             id="path4144-8"
             d="M 4.4844314,9.9507697 8.5523574,5.8828402"
             style="fill:none;fill-rule:evenodd;stroke:#ffffff;stroke-width:0.80000001;stroke-linecap:butt;stroke-linejoin:miter;stroke-miterlimit:4;stroke-dasharray:none;stroke-opacity:1" /><path
             sodipodi:nodetypes="ccccc"
             inkscape:connector-curvature="0"
             id="path4246-1"
             d="M 7.2,5.6004769 7.20104,7.1999976 H 10.4 l -1.6,-1.6 z"
             style="display:inline;fill:#ffffff;fill-opacity:1;fill-rule:evenodd;stroke:none;stroke-width:0.79746723px;stroke-linecap:butt;stroke-linejoin:miter;stroke-opacity:1" /><path
             sodipodi:nodetypes="ccccc"
             inkscape:connector-curvature="0"
             id="path4246-1-8"
             d="m 4.8,3.2004766 0.00104,1.599521 H 8 l -1.6,-1.6 z"
             style="display:inline;fill:#ffffff;fill-opacity:1;fill-rule:evenodd;stroke:none;stroke-width:0.79746723px;stroke-linecap:butt;stroke-linejoin:miter;stroke-opacity:1" /></g></g></g><path
       sodipodi:nodetypes="scscszs"
       inkscape:connector-curvature="0"
       id="path4522"
       d="M 11.464889,0.04099622 C 11.338624,-0.23786085 9.9307542,1.5357952 9.9307542,1.5357952 5.0187038,-1.85963 2.9281288,1.2620233 3.5792006,3.8167484 3.778197,4.5975379 4.3559013,0.47630127 8.7035894,2.6152261 c 0,0 -2.3129451,1.2104171 -1.9883124,1.6273373 0.1801101,0.2312028 5.253555,0.843758 5.51394,0.6032166 0.260431,-0.2401099 -0.625456,-4.49842459 -0.764484,-4.80540711 z"
       style="display:inline;fill:#006969;fill-opacity:1;fill-rule:evenodd;stroke:url(#linearGradient978);stroke-width:0;stroke-linecap:butt;stroke-linejoin:miter;stroke-miterlimit:4;stroke-dasharray:none;stroke-opacity:1" /></g></svg>